<svg xmlns="http://www.w3.org/2000/svg" version="1.1" xmlns:xlink="http://www.w3.org/1999/xlink" xmlns:svgjs="http://svgjs.com/svgjs" width="1440" height="560" preserveAspectRatio="none" viewBox="0 0 1440 560"><g mask="url(&quot;#SvgjsMask1017&quot;)" fill="none"><rect width="1440" height="560" x="0" y="0" fill="rgba(4, 22, 39, 1)"></rect><path d="M532.946,587.279C582.323,586.323,631.882,569.44,657.428,527.174C683.785,483.567,681.288,428.493,655.471,384.564C629.999,341.221,583.201,316.748,532.946,315.357C479.923,313.889,425.831,332.235,398.077,377.437C369.152,424.546,369.941,485.656,399.829,532.159C427.66,575.461,481.482,588.275,532.946,587.279" fill="rgba(28, 36, 54, 0.37)" class="triangle-float1"></path><path d="M407.38838063078924 290.78260917375064L479.0764451516119 166.61523912741006 354.9090751052713 94.92717460658744 283.22101058444866 219.09454465292802z" fill="rgba(28, 36, 54, 0.37)" class="triangle-float3"></path><path d="M504.7635721691553 97.1634685327644L580.8740661252394 188.04417738662121 618.0095867774905 91.30283862373089z" fill="rgba(28, 36, 54, 0.37)" class="triangle-float3"></path><path d="M212.08109546304323 266.16386088297367L102.42106854048676 230.5331582464043 66.7903659039174 340.1931851689608 176.45039282647386 375.82388780553015z" fill="rgba(28, 36, 54, 0.37)" class="triangle-float1"></path><path d="M377.244,202.774C406.512,202.562,430.568,183.529,446.464,158.953C464.226,131.492,480.309,97.247,463.735,69.053C447.284,41.067,409.685,40.002,377.244,41.202C347.513,42.301,316.428,49.527,301.166,75.065C285.578,101.149,290.715,133.861,306.267,159.967C321.422,185.407,347.633,202.988,377.244,202.774" fill="rgba(28, 36, 54, 0.37)" class="triangle-float3"></path><path d="M1394.9809778610622 531.5531051809605L1425.9347103429452 423.9916004146314 1330.6007495150454 446.00117950380394z" fill="rgba(28, 36, 54, 0.37)" class="triangle-float3"></path><path d="M29.393620515259467 264.9913985143614L103.79784866170401 353.66290471208583 192.46935485942848 279.2586765656413 118.06512671298393 190.58717036791683z" fill="rgba(28, 36, 54, 0.37)" class="triangle-float3"></path><path d="M1334.8082513558259 102.06279609580129L1218.299226619703 0.7830460567868016 1117.0194765806884 117.29207079290983 1233.5285013168113 218.5718208319243z" fill="rgba(28, 36, 54, 0.37)" class="triangle-float2"></path><path d="M560.4203974031005 301.3111938819958L673.0690377298599 281.4481992522645 653.2060431001286 168.79955892550515 540.5574027733692 188.66255355523646z" fill="rgba(28, 36, 54, 0.37)" class="triangle-float1"></path><path d="M1278.6311471266124 250.73990704264153L1112.3389981613768 230.1609104612131 1167.2092621268475 365.96957944563155z" fill="rgba(28, 36, 54, 0.37)" class="triangle-float2"></path><path d="M559.7352053114366 194.49108651445894L569.4326834474467 83.64840421497843 398.31992093022086 124.5235281607035z" fill="rgba(28, 36, 54, 0.37)" class="triangle-float3"></path><path d="M8.148494796048453 160.03570156536586L123.43497725935902 79.47486728390773 12.931965111745015 25.578947124827152z" fill="rgba(28, 36, 54, 0.37)" class="triangle-float2"></path></g><defs><mask id="SvgjsMask1017"><rect width="1440" height="560" fill="#ffffff"></rect></mask><style>
            @keyframes float1 {
                0%{transform: translate(0, 0)}
                50%{transform: translate(-10px, 0)}
                100%{transform: translate(0, 0)}
            }

            .triangle-float1 {
                animation: float1 5s infinite;
            }

            @keyframes float2 {
                0%{transform: translate(0, 0)}
                50%{transform: translate(-5px, -5px)}
                100%{transform: translate(0, 0)}
            }

            .triangle-float2 {
                animation: float2 4s infinite;
            }

            @keyframes float3 {
                0%{transform: translate(0, 0)}
                50%{transform: translate(0, -10px)}
                100%{transform: translate(0, 0)}
            }

            .triangle-float3 {
                animation: float3 6s infinite;
            }
        </style></defs></svg>